<?xml version="1.0" encoding="utf-8"?>
<!-- Generator: Adobe Illustrator 24.0.1, SVG Export Plug-In . SVG Version: 6.00 Build 0)  -->
<svg version="1.1" id="Capa_1" xmlns="http://www.w3.org/2000/svg" xmlns:xlink="http://www.w3.org/1999/xlink" x="0px" y="0px"
	 viewBox="0 0 512 512" style="enable-background:new 0 0 512 512;" xml:space="preserve">
<style type="text/css">
	.st0{fill:#FFFFFF;}
</style>
<g id="_14-photograph">
	<g id="filled">
		<path class="st0" d="M176.5,117.2c6.3,5.9,14.7,7.8,23,7.8c13.9,0,27.7-5.4,31.5-7c3.1-1.3,5.6-3.9,6.7-7.2
			c2.2-6.3,12.1-38.7-4.6-54.4c-10.1-9.4-23.1-13-33.9-9.3c-5,1.7-13.2,6.3-17.4,18.3c-11.7,5-15.7,13.5-17,18.6
			C161.9,95.1,166.3,107.8,176.5,117.2z M188,90.2c0.4-1.4,3-2.9,6.6-3.7c4.7-1.1,8.3-5,9.1-9.7c0.6-3.7,1.9-6.4,3.3-6.8
			c0.4-0.1,0.7-0.2,1.1-0.2c2.1,0,5.5,1.4,8.7,4.3c2.7,2.5,2.4,13.3-0.2,23.8c-10.2,3.3-21.1,4.3-23.7,1.8
			C189,96.1,187.5,92.1,188,90.2z"/>
		<path class="st0" d="M288.1,79.2c2.7,2.1,6.2,2.9,9.5,2.3c6.6-1.2,39.7-8.4,45.1-30.7c3.3-13.4,0-26.5-8.5-34.1
			c-3.9-3.5-11.9-8.4-24.4-6.2c-10.1-7.7-19.4-7-24.5-5.7c-11,2.9-19.9,13-23.2,26.4C256.6,53.5,282.8,75.1,288.1,79.2z M285.4,36.9
			c1.2-5.1,4-8.4,5.9-8.9c0.1,0,0.3-0.1,0.4-0.1c1.5,0,3.8,1.5,6,4c3.3,3.6,8.4,4.8,12.9,3.1c3.5-1.3,6.5-1.5,7.6-0.5
			c1.5,1.3,2.4,5.5,1.2,10.6c-0.9,3.5-10.4,8.7-20.8,11.5C290.7,49.4,284.5,40.4,285.4,36.9L285.4,36.9z"/>
		<path class="st0" d="M448,196h-21.8l-12.2-73.4c-2.1-13-13.4-22.6-26.6-22.6H284.7c-13.2,0-24.5,9.5-26.6,22.6L245.8,196H172v-20
			c0-15.5-12.5-28-28-28h-32c-15.5,0-28,12.5-28,28v20H64c-15.5,0-28,12.5-28,28v256c0,15.5,12.5,28,28,28h384c15.5,0,28-12.5,28-28
			V224C476,208.5,463.5,196,448,196z M281.7,126.5c0.2-1.4,1.5-2.5,3-2.5h102.6c1.5,0,2.7,1.1,3,2.5l11.6,69.5h-23.1l-4.1-37.3
			c-0.7-6.1-5.8-10.7-11.9-10.7h-53.3c-6.1,0-11.3,4.6-11.9,10.7l-4.1,37.3h-23.1L281.7,126.5z M354.6,196h-37.2l2.7-24h31.9
			L354.6,196z M108,176c0-2.2,1.8-4,4-4h32c2.2,0,4,1.8,4,4v20h-40V176z M64,220h384c2.2,0,4,1.8,4,4v36H312.5
			c-34.7-21.3-78.4-21.3-113,0H60v-36C60,221.8,61.8,220,64,220z M452,420H339.8c32.2-39.6,32.2-96.4,0-136H452V420z M60,284h112.2
			c-32.2,39.6-32.2,96.4,0,136H60V284z M172,352c0-46.4,37.6-84,84-84s84,37.6,84,84s-37.6,84-84,84
			C209.6,435.9,172.1,398.4,172,352z M448,484H64c-2.2,0-4-1.8-4-4v-36h139.5c34.7,21.3,78.4,21.3,113,0H452v36
			C452,482.2,450.2,484,448,484z"/>
		<path class="st0" d="M316,352c0-33.1-26.9-60-60-60s-60,26.9-60,60s26.9,60,60,60C289.1,412,316,385.1,316,352z M220,352
			c0-19.9,16.1-36,36-36s36,16.1,36,36s-16.1,36-36,36C236.1,388,220,371.9,220,352z"/>
	</g>
</g>
</svg>
