<svg id="Capa_1" enable-background="new 0 0 512 512" height="512" viewBox="0 0 512 512" width="512" xmlns="http://www.w3.org/2000/svg"><g><path d="m451.435 210.625v-210.625h-390.87v210.625h-60.354v301.375h511.578v-301.375zm30.354 30v26.245l-30.354 17.146v-43.391zm-60.354-210.625v270.961l-165.967 93.747-164.903-93.571v-271.137zm-360.87 210.625v43.489l-30.354-17.224v-26.265zm-30.354 241.375v-180.617l225.223 127.799 226.355-127.857v180.675z"/><path d="m196.253 212.474 8.167 5.302 8.167-5.302c18.696-12.136 32.791-24.033 43.417-35.168 10.624 11.136 24.711 23.031 43.408 35.168l8.167 5.302 8.167-5.302c74.377-48.28 75.996-92.789 75.667-100.527-.227-28.684-23.633-51.947-52.37-51.947-11.566 0-22.534 3.754-31.464 10.476-8.929-6.722-19.897-10.476-31.463-10.476-7.124 0-13.92 1.433-20.116 4.021-6.197-2.588-12.992-4.021-20.116-4.021-11.565 0-22.534 3.754-31.463 10.476-8.93-6.722-19.899-10.476-31.464-10.476-28.737 0-52.142 23.263-52.37 51.947-.33 7.739 1.289 52.247 75.666 100.527zm98.707-112.168 12.62 19.642 12.62-19.642c4.146-6.453 11.19-10.306 18.843-10.306 12.336 0 22.372 10.036 22.372 22.372 0 0-.251 31.859-53.834 69.431-14.48-10.158-25.047-19.797-32.786-28.477 13.214-21.382 13.642-37.07 13.46-41.377-.058-7.307-1.627-14.258-4.398-20.566 4.502 1.655 8.414 4.737 11.103 8.923zm-143.235 17.478c-1.641-5.865-.936-12.224 2.327-17.366 3.971-6.257 10.961-10.418 18.905-10.418 7.653 0 14.698 3.853 18.844 10.306l12.62 19.642 12.62-19.642c4.146-6.453 11.189-10.306 18.843-10.306 8.826 0 16.474 5.137 20.112 12.577 2.271 4.645 2.569 9.999 1.238 14.995-2.861 10.741-13.552 36.685-52.813 64.23-38.631-27.103-49.637-53.087-52.696-64.018z"/><path d="m189.667 244.893h132.667v30h-132.667z"/><path d="m158.121 304.893h195.758v30h-195.758z"/></g></svg>