<svg xmlns="http://www.w3.org/2000/svg" viewBox="0 0 37.42 54.42"><title>traje</title><g id="Capa_2" data-name="Capa 2"><g id="Capa_2-2" data-name="Capa 2"><path d="M25.52,4.25a.83.83,0,0,1-.71-.38l-1.7-2.55A.85.85,0,1,1,24.53.38l1.7,2.55A.85.85,0,0,1,26,4.11.83.83,0,0,1,25.52,4.25Z"/><path d="M18.72,28.92a.85.85,0,0,1-.23,0,.86.86,0,0,1-.6-1.05L24.7,3.18a.85.85,0,0,1,1-.6.86.86,0,0,1,.6,1L19.53,28.29A.84.84,0,0,1,18.72,28.92Z"/><path d="M36.57,10.21a.86.86,0,0,1-.4-.11L25.11,4.15a.85.85,0,0,1,.81-1.5L37,8.61a.85.85,0,0,1,.34,1.15A.86.86,0,0,1,36.57,10.21Z"/><path d="M26.37,11.06A.78.78,0,0,1,26,11a.85.85,0,0,1-.37-1.14l2.55-5a.85.85,0,0,1,1.52.77l-2.55,5A.86.86,0,0,1,26.37,11.06Z"/><path d="M28.07,11.91a.85.85,0,0,1-.38-.09L26,11a.85.85,0,1,1,.76-1.52l1.7.85a.85.85,0,0,1,.38,1.14A.87.87,0,0,1,28.07,11.91Z"/><path d="M18.72,28.92a.87.87,0,0,1-.41-.11A.84.84,0,0,1,18,27.66l9.35-17a.87.87,0,0,1,1.16-.34.84.84,0,0,1,.33,1.15l-9.35,17A.84.84,0,0,1,18.72,28.92Z"/><path d="M36.57,47.63a.85.85,0,0,1-.85-.86V9.36a.85.85,0,0,1,1.7,0V46.77A.86.86,0,0,1,36.57,47.63Z"/><path d="M30.62,49.33a.85.85,0,0,1-.85-.85v-23a.85.85,0,0,1,1.7,0v23A.85.85,0,0,1,30.62,49.33Z"/><path d="M36.57,47.63H30.62a.86.86,0,0,1,0-1.71h5.95a.86.86,0,0,1,0,1.71Z"/><path d="M18.72,49.33a.85.85,0,0,1-.85-.85V28.07a.85.85,0,0,1,1.7,0V48.48A.85.85,0,0,1,18.72,49.33Z"/><path d="M23.81,54.42a6,6,0,0,1-5.94-5.94.85.85,0,1,1,1.7,0,4.24,4.24,0,0,0,4.24,4.24.85.85,0,0,1,0,1.7Z"/><path d="M30.62,54.42H23.81a.85.85,0,1,1,0-1.7h6.81a.85.85,0,0,1,0,1.7Z"/><path d="M30.62,54.42a.85.85,0,0,1-.85-.85V48.48a.85.85,0,0,1,1.7,0v5.09A.85.85,0,0,1,30.62,54.42Z"/><path d="M11.91,4.25a.83.83,0,0,1-.47-.14.85.85,0,0,1-.23-1.18L12.91.38a.85.85,0,1,1,1.41.94l-1.7,2.55A.83.83,0,0,1,11.91,4.25Z"/><path d="M18.72,28.92a.85.85,0,0,1-.82-.63L11.1,3.63a.85.85,0,0,1,.59-1,.85.85,0,0,1,1,.6l6.81,24.66a.86.86,0,0,1-.6,1.05A.83.83,0,0,1,18.72,28.92Z"/><path d="M23.82,1.7H13.62a.85.85,0,1,1,0-1.7h10.2a.85.85,0,0,1,0,1.7Z"/><path d="M16.16,11.06a.82.82,0,0,1-.43-.12L12.88,9.23a.85.85,0,0,1,.88-1.46L16.6,9.48a.85.85,0,0,1-.44,1.58Z"/><path d="M16.16,11.06a.89.89,0,0,1-.6-.25.85.85,0,0,1,0-1.2l2.55-2.56a.86.86,0,1,1,1.21,1.21l-2.56,2.55A.86.86,0,0,1,16.16,11.06Z"/><path d="M21.27,11.06a.85.85,0,0,1-.44-1.58l2.84-1.71a.85.85,0,0,1,.88,1.46l-2.84,1.71A.88.88,0,0,1,21.27,11.06Z"/><path d="M21.27,11.06a.86.86,0,0,1-.6-.25L18.12,8.26a.86.86,0,0,1,0-1.21.85.85,0,0,1,1.2,0l2.55,2.56a.85.85,0,0,1-.6,1.45Z"/><path d="M18.72,8.51a1,1,0,0,1-.46-.13l-6.8-4.26a.85.85,0,1,1,.91-1.44l6.8,4.25a.86.86,0,0,1,.27,1.18A.87.87,0,0,1,18.72,8.51Z"/><path d="M18.72,8.51a.89.89,0,0,1-.73-.4.88.88,0,0,1,.27-1.18l6.81-4.25A.85.85,0,0,1,26,4.12l-6.8,4.25A.85.85,0,0,1,18.72,8.51Z"/><path d="M17.87,13.61a.86.86,0,0,1-.71-.38l-1.7-2.55a.84.84,0,0,1,.23-1.18.85.85,0,0,1,1.18.23l1.7,2.55a.86.86,0,0,1-.7,1.33Z"/><path d="M19.57,13.61h-1.7a.86.86,0,0,1,0-1.71h1.7a.86.86,0,0,1,0,1.71Z"/><path d="M19.57,13.61a.86.86,0,0,1-.71-1.33l1.7-2.55a.85.85,0,0,1,1.42.95l-1.71,2.55A.85.85,0,0,1,19.57,13.61Z"/><path d="M16.37,20.41a.55.55,0,0,1-.18,0,.85.85,0,0,1-.65-1L17,12.57a.86.86,0,0,1,1.67.37l-1.5,6.8A.84.84,0,0,1,16.37,20.41Z"/><path d="M21.06,20.41a.85.85,0,0,1-.83-.67l-1.49-6.8a.85.85,0,0,1,1.66-.37l1.49,6.81a.85.85,0,0,1-.65,1Z"/><path d="M36.57,44.22h-.85a.85.85,0,0,1,0-1.7h.85a.85.85,0,0,1,0,1.7Z"/><path d="M.85,10.21A.88.88,0,0,1,.1,9.76.86.86,0,0,1,.45,8.61l11.05-6A.85.85,0,0,1,12.65,3a.84.84,0,0,1-.34,1.15l-11,5.95A.87.87,0,0,1,.85,10.21Z"/><path d="M11.06,11.06a.85.85,0,0,1-.76-.47l-2.55-5a.85.85,0,1,1,1.51-.77l2.55,5A.84.84,0,0,1,11.44,11,.75.75,0,0,1,11.06,11.06Z"/><path d="M9.36,11.91A.86.86,0,0,1,9,10.29l1.7-.85A.85.85,0,0,1,11.44,11l-1.7.85A.85.85,0,0,1,9.36,11.91Z"/><path d="M18.71,28.92a.87.87,0,0,1-.75-.44l-9.35-17A.85.85,0,0,1,9,10.31a.83.83,0,0,1,1.15.34l9.35,17a.84.84,0,0,1-.33,1.15A.87.87,0,0,1,18.71,28.92Z"/><path d="M.85,47.63A.86.86,0,0,1,0,46.77V9.36a.85.85,0,0,1,1.7,0V46.77A.85.85,0,0,1,.85,47.63Z"/><path d="M6.8,49.33A.85.85,0,0,1,6,48.48v-23a.85.85,0,1,1,1.7,0v23A.85.85,0,0,1,6.8,49.33Z"/><path d="M6.8,47.63H.85a.86.86,0,0,1,0-1.71h6a.86.86,0,0,1,0,1.71Z"/><path d="M13.61,54.42a.85.85,0,1,1,0-1.7,4.25,4.25,0,0,0,4.25-4.24.85.85,0,0,1,1.7,0A6,6,0,0,1,13.61,54.42Z"/><path d="M13.61,54.42H6.81a.85.85,0,1,1,0-1.7h6.8a.85.85,0,0,1,0,1.7Z"/><path d="M6.81,54.42A.85.85,0,0,1,6,53.57V48.48a.85.85,0,0,1,1.7,0v5.09A.85.85,0,0,1,6.81,54.42Z"/><path d="M1.7,44.22H.85a.85.85,0,1,1,0-1.7H1.7a.85.85,0,1,1,0,1.7Z"/><path d="M27.65,23a2.13,2.13,0,0,1-2.13-2.13.85.85,0,0,1,1.7,0,.43.43,0,1,0,.85,0,.85.85,0,0,1,1.7,0A2.13,2.13,0,0,1,27.65,23Z"/><path d="M27.65,24.67a.85.85,0,0,1-.85-.85V22.1a.85.85,0,1,1,1.7,0v1.72A.85.85,0,0,1,27.65,24.67Z"/><path d="M28.92,19.54H26.37a.85.85,0,1,1,0-1.7h2.55a.85.85,0,1,1,0,1.7Z"/><path d="M28.92,21.67a.85.85,0,0,1-.85-.85V18.69a.85.85,0,0,1,1.7,0v2.13A.85.85,0,0,1,28.92,21.67Z"/><path d="M26.37,21.67a.85.85,0,0,1-.85-.85V18.69a.85.85,0,0,1,1.7,0v2.13A.85.85,0,0,1,26.37,21.67Z"/><path d="M19.57,35.71h-.86a.85.85,0,1,1,0-1.7h.86a.85.85,0,1,1,0,1.7Z"/><path d="M19.57,42.52h-.86a.85.85,0,1,1,0-1.7h.86a.85.85,0,1,1,0,1.7Z"/></g></g></svg>