<svg xmlns="http://www.w3.org/2000/svg" viewBox="0 0 50.74 56.59"><title>vestido</title><g id="Capa_2" data-name="Capa 2"><g id="Capa_2-2" data-name="Capa 2"><path d="M50.5,44.84C42,36.3,35,24.18,34.12,22.54v-3.7a21.59,21.59,0,0,1,.47-3.56A.84.84,0,1,0,32.94,15c-.24,1.25-.39,2.25-.46,3H18.26A73.86,73.86,0,0,0,16.4,8.8a2.49,2.49,0,0,1,1.46-1.44C20,6.55,23.72,8.2,25,8.91a.84.84,0,0,0,.84,0C27,8.2,30.71,6.55,32.88,7.36A2.48,2.48,0,0,1,34.35,8.8c-.13.48-.4,1.56-.7,2.85a.84.84,0,1,0,1.63.39C35.68,10.32,36,9,36,9a.78.78,0,0,0,0-.5,4.37,4.37,0,0,0-1.79-2.32A8.7,8.7,0,0,0,31.42.2a.84.84,0,0,0-1.27.21A15.31,15.31,0,0,0,28.25,6l-.39.13a20.39,20.39,0,0,0-2.49,1.06,20.39,20.39,0,0,0-2.49-1.06L22.49,6A15.11,15.11,0,0,0,20.59.41.83.83,0,0,0,20,0a.86.86,0,0,0-.69.19,8.7,8.7,0,0,0-2.81,6,4.37,4.37,0,0,0-1.79,2.32.85.85,0,0,0,0,.5c0,.07,1.92,7.26,1.92,9.87v3.7C15.7,24.18,8.78,36.3.25,44.84a.83.83,0,0,0,.06,1.24A35.31,35.31,0,0,0,6,49.64H6a.84.84,0,0,0,.17,1.2,28.57,28.57,0,0,0,4.31,2.39.84.84,0,0,0,.35.07.84.84,0,0,0,.35-1.6A30.66,30.66,0,0,1,7.84,50C14.68,41,20,28.63,20.09,28.5a.84.84,0,0,0-.43-1.11.85.85,0,0,0-1.11.44C18.5,28,13.47,39.54,7,48.29a40,40,0,0,1-4.87-2.95C10.16,37,16.64,25.93,18,23.6H32.79C34.1,25.93,40.59,37,48.63,45.34a41.17,41.17,0,0,1-4.88,2.95C37.27,39.54,32.24,28,32.19,27.83a.84.84,0,1,0-1.54.67C30.7,28.63,36.06,41,42.91,50a34.89,34.89,0,0,1-17.54,4.95,33.67,33.67,0,0,1-11.19-2,.84.84,0,1,0-.56,1.59,35.43,35.43,0,0,0,11.75,2.06,35.63,35.63,0,0,0,19.25-5.74.81.81,0,0,0,.34-.56.78.78,0,0,0-.17-.64h0a35.31,35.31,0,0,0,5.64-3.56.81.81,0,0,0,.31-.61A.84.84,0,0,0,50.5,44.84ZM31.08,2.27a7.12,7.12,0,0,1,1.38,3.26A7.64,7.64,0,0,0,30,5.6,13.29,13.29,0,0,1,31.08,2.27Zm-11.42,0A12.89,12.89,0,0,1,20.74,5.6a7.64,7.64,0,0,0-2.46-.07A7.23,7.23,0,0,1,19.66,2.27ZM32.44,21.92H18.3V19.68H32.44Z"/></g></g></svg>